<svg xmlns="http://www.w3.org/2000/svg" viewBox="0 0 256 256" id="empty-room-large" aria-hidden="true" role="none" data-supported-dps="256x256" width="256" height="256">
  <path d="M177.57 0v.06C79.06 2.61 0 82.19 0 180h180V0h-2.43z" fill="#e8f3ff"/>
  <circle cx="155" cy="82.84" r="5" fill="#d0e8ff"/>
  <circle cx="139" cy="82.84" r="5" fill="#d0e8ff"/>
  <circle cx="123" cy="82.84" r="5" fill="#d0e8ff"/>
  <circle cx="107" cy="82.84" r="5" fill="#d0e8ff"/>
  <circle cx="91" cy="82.84" r="5" fill="#d0e8ff"/>
  <circle cx="75" cy="82.84" r="5" fill="#d0e8ff"/>
  <circle cx="59" cy="82.84" r="5" fill="#d0e8ff"/>
  <circle cx="43" cy="82.84" r="5" fill="#d0e8ff"/>
  <circle cx="27" cy="82.84" r="5" fill="#d0e8ff"/>
  <circle cx="11" cy="82.84" r="5" fill="#d0e8ff"/>
  <path fill="#38434f" d="M36 198h2v40h-2z"/>
  <path d="M24 238v-1.89c0-2.27 1.84-4.1 4.11-4.11h17.78c2.27 0 4.1 1.84 4.11 4.11V238h2v-1.89c0-3.37-2.74-6.1-6.11-6.11H28.11c-3.37 0-6.1 2.74-6.11 6.11V238h2z" fill="#38434f"/>
  <path d="M34 239c0 1.66 1.34 3 3 3s3-1.34 3-3-1.34-3-3-3-3 1.34-3 3zM20 239c0 1.66 1.34 3 3 3s3-1.34 3-3-1.34-3-3-3-3 1.34-3 3zM48 239c0 1.66 1.34 3 3 3s3-1.34 3-3-1.34-3-3-3-3 1.34-3 3z" fill="#464f6a"/>
  <path d="M24 182v-42c0-5.52 4.48-10 10-10h26c5.52 0 10 4.48 10 10v46c0 8.84-7.16 16-16 16H18c-5.52 0-10-4.48-10-10v-10h16z" fill="#6692b8"/>
  <path fill="#38434f" d="M104 198h2v40h-2z"/>
  <path d="M92 238v-1.89c0-2.27 1.84-4.1 4.11-4.11h17.78c2.27 0 4.1 1.84 4.11 4.11V238h2v-1.89c0-3.37-2.74-6.1-6.11-6.11H96.11c-3.37 0-6.1 2.74-6.11 6.11V238h2z" fill="#38434f"/>
  <path d="M102 239c0 1.66 1.34 3 3 3s3-1.34 3-3-1.34-3-3-3-3 1.34-3 3zM88 239c0 1.66 1.34 3 3 3s3-1.34 3-3-1.34-3-3-3-3 1.34-3 3zM116 239c0 1.66 1.34 3 3 3s3-1.34 3-3-1.34-3-3-3-3 1.34-3 3z" fill="#464f6a"/>
  <path d="M90 182v-42c0-5.52 4.48-10 10-10h26c5.52 0 10 4.48 10 10v46c0 8.84-7.16 16-16 16H84c-5.52 0-10-4.48-10-10v-10h16z" fill="#6692b8"/>
  <path fill="#6e6558" d="M0 186v5.97h140.26V256H146v-70H0z"/>
  <path fill="#e9e5df" d="M0 170h146v20H0z"/>
  <path fill="#c0d1e2" d="M180 0h76v196h-76z"/>
  <path d="M186 30v21.21c3.86 1.64 7.09 5 9.77 8.51C201.33 67 200.43 71.58 206 76c.24.19 6 8 6 8l6 12v40c0 3.88-1.18 7.67-3.37 10.87l-12.82 18.66L198 196h-12v34l70-24V6l-70 24z" fill="#f6fbff"/>
  <path fill="#f5cea9" d="M182 196h4v4h-4z"/>
  <path fill="#3a8ce9" d="M182 200h4v16h-4z"/>
  <path d="M186 214h-3.54a1 1 0 00-.9 1v2a1 1 0 00.9 1H186v-4z" fill="#0d2135" fill-rule="evenodd"/>
  <path fill="#dad6d7" d="M186 196h8v4h-8z"/>
  <path fill="#f5cea9" d="M171 176.15l11 8.18-7.37 5.63-9.84-5.38 6.21-8.43z"/>
  <path d="M216 72l-10 4c2.06 2.81 4 5.24 5.69 7.74l5.5-4.24a29 29 0 0112-6c5.75-1.15 8.85-2.8 10.45-4 .64-.5.36-1.5.36-1.5h-14c-3.69.14-7.23 1.56-10 4z" fill="#dad6d7"/>
  <path fill="#c7cfd7" d="M252 36h-2l-8 30h-32v2h34l8-32z"/>
  <path fill="#043a20" d="M167.88 180.37l13.74 8.52-1.28-28.57-12.46 20.05z"/>
  <path d="M166.34 13.76c.63 0 1.21.13 1.8.22-.59-.11-1.2-.19-1.8-.22z" fill="#f5cea9"/>
  <path d="M154.51 69.45c-.23-.31-.26-.35 0 0z" fill="#ef89b2"/>
  <path fill="#004d2a" d="M178 106h8v90h-8z"/>
  <path d="M179.81 21.65C176 14.12 163 9 153.32 19c-5.54 5.7-8.08 11.84-10.3 20.27-2.54 9.61-3.71 17.89-15 23.64 9.17 6.73 19.3 6.91 26.32 5.84-1.94-6.91.76-9.15 5.3-12.81.69-.55 16-3.9 16.11-3.84.4 0 4.1-1.05 4.45-1.07 4.21-11.46 3.72-21.32-.39-29.38z" fill="#4f1351"/>
  <path d="M186 51.21c-.67-.62-4.19-1-4.59-1-3.24.06-6.46.39-9.64 1-3.14.48-6.26 1-9.34 1.77-3.81 1-8.39 2.89-9.55 7-1.09 3.82.54 7.53 2.66 10.67 2.31 3.35 5.9 8.11 8.46 11.35 2.93 3.71 5.54 5.92 8 10 2.53 4.42 4.55 9.12 6 14h8V51.21z" fill="#ef89b2"/>
  <path d="M210 98.42l8-2.42-6-12s-5.76-7.81-6-8c-5.57-4.42-4.67-9-10.23-16.28-2.68-3.48-5.91-6.87-9.77-8.51V106l24-7.58z" fill="#f5e3f0"/>
  <path d="M207.06 40.54c-.43.44-1.91 3.57-2.57 3.22-.39-.21.72-3 1.49-6.69.13-.66-1-1.43-1.4-.18-.81 2.31-1.09 3.24-1.67 4.87-.1.29-.57 1.34-.93 1.29-.88-.13.07-3.94.62-6.83a.866.866 0 00-.7-1.01.86.86 0 00-.91.42c-.57 1.97-1.04 3.98-1.4 6-.12.57-.17 1.54-.79 1.59-.34 0-.6-2.05-.72-3s0-3.16-1-3.64c-1.47-.72-1.06 2.64-1 3.17.15 2 .14 4.19.35 6.23-1.14-1.39-1.76-3.64-3.65-4.23-.45-.14-1.43.17-1 .93.71 1.19 2 3.39 2.21 4.63.61 4.45 2.11 5.55 1.39 7.82-.19.59-9.33 18-9.33 18s-2.42-.94-8.79-5a69.972 69.972 0 01-7.51-5.4 44.883 44.883 0 00-7.41-5.35 6.236 6.236 0 00-8.39 2.7 6.19 6.19 0 00-.49 4.39c.6 3 3.12 5.93 5.13 7.62 6 5.1 22.8 14.64 28.75 14.88 1.31.07 2.6-.38 3.58-1.25 1-.92 3.15-2.71 5.63-9.42 2.16-5.5 3.88-11.15 5.16-16.92.45-2.55 1.22-5.03 2.29-7.38.91-1.83 1.63-3.75 2.36-5.66.75-1.71 1.3-3.5 1.64-5.34.04-.3-.17-.58-.47-.62a.58.58 0 00-.47.16z" fill="#f5cea9" fill-rule="evenodd"/>
  <path d="M186 200v18h20.93c2.07.07 3.8-1.56 3.87-3.63v-.01a4.177 4.177 0 00-3.46-4.07l-3.71-.72c-4.35-.84-8.77-4.88-9.42-7.15-.16-.8-.23-1.61-.21-2.42h-8z" fill="#cdddf0" fill-rule="evenodd"/>
  <path d="M210.83 214H186v4h21.64c1.76 0 3.16-1.79 3.16-4h.03zM201.56 208.51c.14-.5-.79-.73-.93-.24s-.46 1.64-.62 2.19c-.05.2.06.4.26.45h.02c.21.13.49.06.62-.15.01-.02.02-.04.03-.07l.62-2.19zM198.46 206.93c.27-.46-.58-.9-.83-.46l-1.2 2c-.1.18-.04.4.13.51a.459.459 0 00.69-.06l1.2-2zM196.49 205.17c.39-.37-.32-1-.68-.65l-1.7 1.61c-.15.14-.15.38 0 .52.14.21.42.28.63.14.02 0 .03-.02.05-.03l1.7-1.6zM194.75 202.81c.48-.26 0-1.05-.48-.79l-2.07 1.14c-.18.09-.25.3-.17.48 0 0 0 .02.02.03.08.24.33.38.58.3.02 0 .04-.01.05-.02l2.07-1.14z" fill="#c7cfd7" fill-rule="evenodd"/>
  <path d="M178.34 208.1c-.64-.95-2.36-2.95-3.09-4a13.706 13.706 0 01-1.87-12.23c.25-.96.89-1.77 1.76-2.24l-8.41-7.63-10.55 11.55c-.42.58-.88 1.14-1.38 1.65l21.27 17.2 1.14-.4s2.29-2.18 1.13-3.9z" fill="#2c64b2"/>
  <path fill="#0d2135" d="M177.21 212l.02.02-.02-.02zM156.49 193.72a.94.94 0 00-.31-.17.85.85 0 00-.88.24l-1.12 1.21c-.32.34-.3.87.04 1.19l.02.02 18.17 16.15c1.24 1.24 3.54.87 4.79-.38l-20.71-18.26z"/>
  <path d="M174.42 202.15c.46-.26 0-1.08-.49-.82l-2 1.11c-.18.1-.24.33-.14.5v.02c.1.24.36.45.62.3l2-1.11zM173.35 199.15c.51-.12.22-1-.27-.91l-2.24.55a.34.34 0 00-.26.42c0 .01 0 .03.01.04 0 .26.23.52.52.45l2.24-.55zM172.8 196.11c.54 0 .48-.94 0-.94l-2.33-.06c-.2 0-.36.15-.37.35v.02c-.06.24.08.49.32.55.02 0 .05.01.08.01l2.33.07h-.03zM173 193.15c.52.15.72-.77.21-.9l-2.26-.67c-.2-.06-.41.06-.47.26a.447.447 0 00.25.64l2.27.67z" fill="#0d2135" fill-rule="evenodd"/>
  <path d="M169.46 42.51c-3.24-5.25-2.32-9-3.59-12.26-1.34-3.45-2.33-3.88-8.25-5.21-1.73-.32-3.36-1.01-4.78-2.04-.79 2.03-1 4.24-.59 6.38.47 3-.54 4.79-.21 6.09s2.17.6 2.62 3.05c1 4.31 1.3 4.4 6 4.82 3.38.29 2.59 6.13 1.77 9.75 12.66 7.14 16.11-2.76 16.11-2.76s-6.07-2.95-9.08-7.82z" fill="#f5cea9"/>
</svg>
